<mxfile host="app.diagrams.net" agent="Mozilla/5.0 (Macintosh; Intel Mac OS X 10_15_7) AppleWebKit/537.36 (KHTML, like Gecko) Chrome/137.0.0.0 Safari/537.36" version="28.1.2">
  <diagram name="PÃ¡gina-1" id="TmL6d8h3nC6piWnJf7gM">
    <mxGraphModel dx="2678" dy="1191" grid="1" gridSize="10" guides="1" tooltips="1" connect="1" arrows="1" fold="1" page="1" pageScale="1" pageWidth="827" pageHeight="1169" math="0" shadow="0">
      <root>
        <mxCell id="0" />
        <mxCell id="1" parent="0" />
        <mxCell id="4Wrpnf60-sLIy5-J4-Sm-5" value="" style="edgeStyle=orthogonalEdgeStyle;rounded=0;orthogonalLoop=1;jettySize=auto;html=1;" edge="1" parent="1" source="4Wrpnf60-sLIy5-J4-Sm-1" target="4Wrpnf60-sLIy5-J4-Sm-3">
          <mxGeometry relative="1" as="geometry" />
        </mxCell>
        <mxCell id="4Wrpnf60-sLIy5-J4-Sm-1" value="&lt;font style=&quot;font-size: 16px;&quot;&gt;&lt;b style=&quot;&quot;&gt;Data Acquisition&lt;/b&gt;&lt;br&gt;&lt;/font&gt;&lt;font style=&quot;font-size: 14px;&quot;&gt;UAV, Satellites, RGB / Multispectral / Hyperspectral cameras,&amp;nbsp;&lt;br&gt;&lt;/font&gt;&lt;div&gt;&lt;span style=&quot;background-color: transparent; color: light-dark(rgb(0, 0, 0), rgb(255, 255, 255));&quot;&gt;&lt;font style=&quot;font-size: 14px;&quot;&gt;metadata&lt;/font&gt;&lt;/span&gt;&lt;/div&gt;" style="rounded=0;whiteSpace=wrap;html=1;" vertex="1" parent="1">
          <mxGeometry x="-170" y="260" width="200" height="100" as="geometry" />
        </mxCell>
        <mxCell id="4Wrpnf60-sLIy5-J4-Sm-7" value="" style="edgeStyle=orthogonalEdgeStyle;rounded=0;orthogonalLoop=1;jettySize=auto;html=1;" edge="1" parent="1" source="4Wrpnf60-sLIy5-J4-Sm-3" target="4Wrpnf60-sLIy5-J4-Sm-6">
          <mxGeometry relative="1" as="geometry" />
        </mxCell>
        <mxCell id="4Wrpnf60-sLIy5-J4-Sm-30" style="edgeStyle=orthogonalEdgeStyle;rounded=0;orthogonalLoop=1;jettySize=auto;html=1;" edge="1" parent="1" source="4Wrpnf60-sLIy5-J4-Sm-3" target="4Wrpnf60-sLIy5-J4-Sm-12">
          <mxGeometry relative="1" as="geometry">
            <Array as="points">
              <mxPoint x="230" y="390" />
              <mxPoint x="540" y="390" />
            </Array>
          </mxGeometry>
        </mxCell>
        <mxCell id="4Wrpnf60-sLIy5-J4-Sm-3" value="&lt;b&gt;&lt;font style=&quot;font-size: 15px;&quot;&gt;Data Ingestion &amp;amp; Storage&lt;br&gt;&lt;/font&gt;&lt;/b&gt;&lt;div&gt;&lt;font style=&quot;font-size: 14px;&quot;&gt;&lt;span style=&quot;background-color: transparent; color: light-dark(rgb(0, 0, 0), rgb(255, 255, 255));&quot;&gt;Google Drive&lt;/span&gt;, SharePoint,&amp;nbsp;&lt;span style=&quot;background-color: transparent; color: light-dark(rgb(0, 0, 0), rgb(255, 255, 255));&quot;&gt;Data lake, raw images, databases&lt;/span&gt;&lt;span style=&quot;background-color: transparent; color: light-dark(rgb(0, 0, 0), rgb(255, 255, 255));&quot;&gt;&amp;nbsp;&lt;/span&gt;&lt;/font&gt;&lt;/div&gt;" style="rounded=0;whiteSpace=wrap;html=1;" vertex="1" parent="1">
          <mxGeometry x="80" y="260" width="200" height="100" as="geometry" />
        </mxCell>
        <mxCell id="4Wrpnf60-sLIy5-J4-Sm-9" value="" style="edgeStyle=orthogonalEdgeStyle;rounded=0;orthogonalLoop=1;jettySize=auto;html=1;" edge="1" parent="1" source="4Wrpnf60-sLIy5-J4-Sm-6" target="4Wrpnf60-sLIy5-J4-Sm-8">
          <mxGeometry relative="1" as="geometry" />
        </mxCell>
        <mxCell id="4Wrpnf60-sLIy5-J4-Sm-23" style="edgeStyle=orthogonalEdgeStyle;rounded=0;orthogonalLoop=1;jettySize=auto;html=1;entryX=0.5;entryY=0;entryDx=0;entryDy=0;exitX=0.5;exitY=0;exitDx=0;exitDy=0;" edge="1" parent="1" source="4Wrpnf60-sLIy5-J4-Sm-8" target="4Wrpnf60-sLIy5-J4-Sm-3">
          <mxGeometry relative="1" as="geometry">
            <Array as="points">
              <mxPoint x="680" y="190" />
              <mxPoint x="180" y="190" />
            </Array>
          </mxGeometry>
        </mxCell>
        <mxCell id="4Wrpnf60-sLIy5-J4-Sm-6" value="&lt;b&gt;&lt;font style=&quot;font-size: 15px;&quot;&gt;Processing &amp;amp; QC&lt;/font&gt;&lt;/b&gt;&lt;div&gt;&lt;font style=&quot;font-size: 14px;&quot;&gt;Mosaicking, shapefiles and plot ID, masking, standardization, image calibration&lt;/font&gt;&lt;/div&gt;" style="rounded=0;whiteSpace=wrap;html=1;" vertex="1" parent="1">
          <mxGeometry x="330" y="260" width="200" height="100" as="geometry" />
        </mxCell>
        <mxCell id="4Wrpnf60-sLIy5-J4-Sm-28" style="edgeStyle=orthogonalEdgeStyle;rounded=0;orthogonalLoop=1;jettySize=auto;html=1;entryX=1;entryY=0.5;entryDx=0;entryDy=0;" edge="1" parent="1" source="4Wrpnf60-sLIy5-J4-Sm-8" target="4Wrpnf60-sLIy5-J4-Sm-12">
          <mxGeometry relative="1" as="geometry">
            <Array as="points">
              <mxPoint x="690" y="520" />
            </Array>
          </mxGeometry>
        </mxCell>
        <mxCell id="4Wrpnf60-sLIy5-J4-Sm-8" value="&lt;b&gt;&lt;font style=&quot;font-size: 15px;&quot;&gt;Feature Extraction&lt;/font&gt;&lt;/b&gt;&lt;div&gt;&lt;font style=&quot;font-size: 14px;&quot;&gt;Reflectance, canopy cover, spectral indices, morphological traits&lt;/font&gt;&lt;/div&gt;" style="rounded=0;whiteSpace=wrap;html=1;" vertex="1" parent="1">
          <mxGeometry x="580" y="260" width="200" height="100" as="geometry" />
        </mxCell>
        <mxCell id="4Wrpnf60-sLIy5-J4-Sm-15" value="" style="edgeStyle=orthogonalEdgeStyle;rounded=0;orthogonalLoop=1;jettySize=auto;html=1;" edge="1" parent="1" source="4Wrpnf60-sLIy5-J4-Sm-12" target="4Wrpnf60-sLIy5-J4-Sm-14">
          <mxGeometry relative="1" as="geometry" />
        </mxCell>
        <mxCell id="4Wrpnf60-sLIy5-J4-Sm-12" value="&lt;b&gt;&lt;font style=&quot;font-size: 15px;&quot;&gt;Data Integration&lt;/font&gt;&lt;/b&gt;&lt;div&gt;&lt;font style=&quot;font-size: 14px;&quot;&gt;Linking phenomics traits with genomics, enviromics, and experimental design&lt;/font&gt;&lt;/div&gt;" style="whiteSpace=wrap;html=1;rounded=0;" vertex="1" parent="1">
          <mxGeometry x="430" y="470" width="220" height="100" as="geometry" />
        </mxCell>
        <mxCell id="4Wrpnf60-sLIy5-J4-Sm-19" value="" style="edgeStyle=orthogonalEdgeStyle;rounded=0;orthogonalLoop=1;jettySize=auto;html=1;" edge="1" parent="1" source="4Wrpnf60-sLIy5-J4-Sm-14" target="4Wrpnf60-sLIy5-J4-Sm-18">
          <mxGeometry relative="1" as="geometry" />
        </mxCell>
        <mxCell id="4Wrpnf60-sLIy5-J4-Sm-26" style="edgeStyle=orthogonalEdgeStyle;rounded=0;orthogonalLoop=1;jettySize=auto;html=1;entryX=0.5;entryY=1;entryDx=0;entryDy=0;" edge="1" parent="1" source="4Wrpnf60-sLIy5-J4-Sm-14" target="4Wrpnf60-sLIy5-J4-Sm-3">
          <mxGeometry relative="1" as="geometry">
            <Array as="points">
              <mxPoint x="260" y="410" />
              <mxPoint x="180" y="410" />
            </Array>
          </mxGeometry>
        </mxCell>
        <mxCell id="4Wrpnf60-sLIy5-J4-Sm-14" value="&lt;b&gt;&lt;font style=&quot;font-size: 15px;&quot;&gt;Analysis &amp;amp; Modeling&lt;/font&gt;&lt;/b&gt;&lt;div&gt;&lt;font style=&quot;font-size: 14px;&quot;&gt;Statistical modeling &amp;amp; Predictive analytics&lt;/font&gt;&lt;/div&gt;" style="whiteSpace=wrap;html=1;rounded=0;" vertex="1" parent="1">
          <mxGeometry x="160" y="470" width="200" height="100" as="geometry" />
        </mxCell>
        <mxCell id="4Wrpnf60-sLIy5-J4-Sm-18" value="&lt;b&gt;&lt;font style=&quot;font-size: 15px;&quot;&gt;Interpretation &amp;amp; Decision&lt;/font&gt;&lt;/b&gt;&lt;div&gt;&lt;font style=&quot;font-size: 14px;&quot;&gt;Genotype selections&lt;b&gt;&amp;nbsp;&lt;/b&gt;&lt;/font&gt;&lt;/div&gt;" style="whiteSpace=wrap;html=1;rounded=0;" vertex="1" parent="1">
          <mxGeometry x="-110" y="470" width="200" height="100" as="geometry" />
        </mxCell>
        <mxCell id="4Wrpnf60-sLIy5-J4-Sm-29" value="&lt;h1 style=&quot;margin-top: 0px;&quot;&gt;From Data Acquisition to Decision: How Many Days?&lt;/h1&gt;" style="text;html=1;whiteSpace=wrap;overflow=hidden;rounded=0;" vertex="1" parent="1">
          <mxGeometry x="-20" y="600" width="639" height="120" as="geometry" />
        </mxCell>
      </root>
    </mxGraphModel>
  </diagram>
</mxfile>
